<?xml version="1.0" encoding="utf-8"?>
<!-- Generator: Adobe Illustrator 27.3.1, SVG Export Plug-In . SVG Version: 6.00 Build 0)  -->
<svg version="1.1" id="Layer_1" xmlns="http://www.w3.org/2000/svg" xmlns:xlink="http://www.w3.org/1999/xlink" x="0px" y="0px"
	 viewBox="0 0 1150.61 253.65" style="enable-background:new 0 0 1150.61 253.65;" xml:space="preserve">
<style type="text/css">
	.st0{fill:#40206E;}
	.st1{fill:#671CD1;}
	.st2{fill:url(#SVGID_1_);}
	.st3{fill:#B8E901;}
	.st4{fill:#FFFFFF;}
</style>
<g>
	<g>
		<g>
			<path class="st0" d="M331.21,192.47c-8.49,0-16.31-1.41-23.47-4.22c-7.16-2.81-13.37-6.79-18.62-11.93
				c-5.25-5.14-9.36-11.16-12.33-18.06c-2.97-6.9-4.46-14.48-4.46-22.76s1.48-15.86,4.46-22.76c2.97-6.9,7.11-12.91,12.41-18.06
				c5.3-5.14,11.54-9.12,18.7-11.94c7.16-2.81,14.98-4.22,23.47-4.22c8.59,0,16.52,1.46,23.79,4.38
				c7.27,2.92,13.45,7.24,18.54,12.97l-10.34,10.02c-4.24-4.46-9.02-7.77-14.32-9.95c-5.31-2.17-10.98-3.26-17.03-3.26
				c-6.26,0-12.07,1.06-17.42,3.18c-5.36,2.12-10,5.09-13.92,8.91c-3.93,3.82-6.98,8.35-9.15,13.61
				c-2.18,5.25-3.26,10.96-3.26,17.11c0,6.15,1.09,11.86,3.26,17.11c2.17,5.25,5.22,9.79,9.15,13.61c3.92,3.82,8.57,6.79,13.92,8.91
				c5.36,2.12,11.16,3.18,17.42,3.18c6.05,0,11.72-1.09,17.03-3.26c5.3-2.17,10.08-5.54,14.32-10.1l10.34,10.02
				c-5.09,5.73-11.27,10.08-18.54,13.05C347.89,190.99,339.91,192.47,331.21,192.47z"/>
			<path class="st0" d="M394.22,191.2V73.12h15.28V191.2H394.22z"/>
			<path class="st0" d="M446.26,90.63c-2.97,0-5.44-0.95-7.4-2.86c-1.96-1.91-2.94-4.24-2.94-7c0-2.86,0.98-5.25,2.94-7.16
				c1.96-1.91,4.43-2.86,7.4-2.86c2.97,0,5.44,0.93,7.4,2.78c1.96,1.86,2.94,4.17,2.94,6.92c0,2.86-0.95,5.28-2.86,7.24
				C451.83,89.65,449.33,90.63,446.26,90.63z M438.62,191.2v-84.34h15.28v84.34H438.62z"/>
			<path class="st0" d="M519.77,192.15c-8.59,0-16.26-1.86-22.99-5.57c-6.74-3.71-12.01-8.8-15.83-15.28
				c-3.82-6.47-5.73-13.9-5.73-22.28c0-8.38,1.91-15.81,5.73-22.28c3.82-6.47,9.1-11.54,15.83-15.2c6.74-3.66,14.4-5.49,22.99-5.49
				c7.64,0,14.45,1.51,20.45,4.54c5.99,3.02,10.63,7.51,13.92,13.45l-11.62,7.48c-2.76-4.14-6.13-7.19-10.1-9.15
				c-3.98-1.96-8.25-2.94-12.81-2.94c-5.52,0-10.45,1.22-14.8,3.66c-4.35,2.44-7.8,5.86-10.34,10.26c-2.55,4.4-3.82,9.63-3.82,15.67
				s1.27,11.3,3.82,15.75c2.55,4.46,5.99,7.9,10.34,10.34c4.35,2.44,9.28,3.66,14.8,3.66c4.56,0,8.83-0.98,12.81-2.94
				c3.98-1.96,7.35-5.01,10.1-9.15l11.62,7.32c-3.29,5.83-7.93,10.32-13.92,13.45C534.23,190.59,527.41,192.15,519.77,192.15z"/>
			<path class="st0" d="M572.77,191.2V73.12h15.28V191.2H572.77z M585.18,170.83l0.32-19.57l48.53-44.4h18.46l-37.24,36.6l-8.27,7
				L585.18,170.83z M637.21,191.2l-33.1-41.06l9.87-12.25l42.01,53.31H637.21z"/>
			<path class="st1" d="M706.11,193.11c-8.91,0-17.45-1.19-25.62-3.58c-8.17-2.39-14.75-5.49-19.73-9.31l8.75-19.41
				c4.77,3.4,10.42,6.18,16.95,8.35c6.52,2.17,13.13,3.26,19.81,3.26c5.09,0,9.2-0.5,12.33-1.51c3.13-1.01,5.44-2.41,6.92-4.22
				c1.48-1.8,2.23-3.87,2.23-6.21c0-2.97-1.17-5.33-3.5-7.08c-2.33-1.75-5.41-3.18-9.23-4.3c-3.82-1.11-8.04-2.17-12.65-3.18
				c-4.62-1.01-9.23-2.25-13.84-3.74c-4.61-1.48-8.83-3.39-12.65-5.73c-3.82-2.33-6.92-5.41-9.31-9.23
				c-2.39-3.82-3.58-8.7-3.58-14.64c0-6.37,1.72-12.17,5.17-17.42c3.45-5.25,8.64-9.44,15.59-12.57c6.95-3.13,15.67-4.69,26.18-4.69
				c7,0,13.9,0.82,20.69,2.47c6.79,1.65,12.78,4.11,17.98,7.4l-7.96,19.57c-5.2-2.97-10.4-5.17-15.59-6.6
				c-5.2-1.43-10.29-2.15-15.28-2.15c-4.99,0-9.07,0.58-12.25,1.75c-3.18,1.17-5.47,2.68-6.84,4.54c-1.38,1.86-2.07,4.01-2.07,6.44
				c0,2.86,1.17,5.17,3.5,6.92c2.33,1.75,5.41,3.16,9.23,4.22c3.82,1.06,8.04,2.12,12.65,3.18c4.61,1.06,9.23,2.28,13.84,3.66
				c4.62,1.38,8.83,3.24,12.65,5.57c3.82,2.33,6.92,5.41,9.31,9.23c2.39,3.82,3.58,8.65,3.58,14.48c0,6.26-1.75,11.99-5.25,17.19
				c-3.5,5.2-8.73,9.39-15.67,12.57C725.5,191.52,716.72,193.11,706.11,193.11z"/>
			<path class="st1" d="M769.29,222.07V105.59H793v17.5l-0.48,25.46l1.59,25.3v48.22H769.29z M819.89,192.47
				c-7.22,0-13.53-1.59-18.94-4.77s-9.63-8.04-12.65-14.56s-4.54-14.77-4.54-24.74c0-10.08,1.43-18.35,4.3-24.82
				c2.86-6.47,7-11.3,12.41-14.48s11.88-4.77,19.41-4.77c8.06,0,15.3,1.83,21.72,5.49c6.42,3.66,11.51,8.78,15.28,15.36
				c3.76,6.58,5.65,14.32,5.65,23.23c0,9.02-1.88,16.82-5.65,23.39c-3.77,6.58-8.86,11.67-15.28,15.28
				C835.19,190.67,827.95,192.47,819.89,192.47z M815.59,172.1c4.14,0,7.82-0.95,11.06-2.86c3.24-1.91,5.83-4.64,7.8-8.2
				c1.96-3.55,2.94-7.77,2.94-12.65c0-4.99-0.98-9.23-2.94-12.73c-1.96-3.5-4.56-6.21-7.8-8.12c-3.24-1.91-6.92-2.86-11.06-2.86
				c-4.14,0-7.85,0.96-11.14,2.86c-3.29,1.91-5.89,4.61-7.8,8.12c-1.91,3.5-2.86,7.75-2.86,12.73c0,4.88,0.96,9.1,2.86,12.65
				c1.91,3.56,4.51,6.29,7.8,8.2C807.74,171.15,811.46,172.1,815.59,172.1z"/>
			<path class="st1" d="M904.07,192.47c-6.68,0-12.41-1.14-17.19-3.42c-4.77-2.28-8.43-5.38-10.98-9.31
				c-2.55-3.92-3.82-8.33-3.82-13.21c0-5.09,1.25-9.55,3.74-13.37c2.49-3.82,6.45-6.81,11.86-8.99c5.41-2.17,12.46-3.26,21.16-3.26
				h22.76v14.48h-20.05c-5.83,0-9.84,0.95-12.01,2.86c-2.18,1.91-3.26,4.3-3.26,7.16c0,3.18,1.25,5.7,3.74,7.56
				c2.49,1.86,5.91,2.79,10.26,2.79c4.14,0,7.85-0.98,11.14-2.94c3.29-1.96,5.67-4.85,7.16-8.67l3.82,11.46
				c-1.8,5.52-5.09,9.71-9.87,12.57C917.75,191.04,911.6,192.47,904.07,192.47z M930.17,191.2v-16.71l-1.59-3.66v-29.92
				c0-5.3-1.62-9.44-4.85-12.41c-3.24-2.97-8.2-4.46-14.88-4.46c-4.56,0-9.04,0.72-13.45,2.15c-4.4,1.43-8.14,3.37-11.22,5.81
				l-8.91-17.34c4.67-3.29,10.29-5.83,16.87-7.64c6.58-1.8,13.26-2.71,20.05-2.71c13.05,0,23.18,3.08,30.39,9.23
				c7.21,6.15,10.82,15.75,10.82,28.8v48.85H930.17z"/>
			<path class="st1" d="M975.83,191.2v-85.61h23.71v24.19l-3.34-7c2.55-6.05,6.63-10.63,12.25-13.76
				c5.62-3.13,12.46-4.69,20.53-4.69v22.92c-1.06-0.1-2.02-0.18-2.86-0.24c-0.85-0.05-1.75-0.08-2.71-0.08
				c-6.79,0-12.28,1.94-16.47,5.81c-4.19,3.87-6.29,9.89-6.29,18.06v40.42H975.83z"/>
			<path class="st1" d="M1043.78,191.2V73.12h24.82V191.2H1043.78z M1064.31,173.69l0.64-30.23l39.94-37.87h29.6l-38.35,38.99
				l-12.89,10.5L1064.31,173.69z M1107.59,191.2l-28.96-35.96l15.59-19.25l43.44,55.22H1107.59z"/>
		</g>
	</g>
	<g>
		<g>
			<path class="st1" d="M207.2,203.99c-1.85-2-3.7-3.99-5.55-5.99c-3.36-3.63-6.72-7.26-10.09-10.88c-2.52-2.7-5.05-5.39-7.57-8.09
				c-2.17-2.33-4.33-4.68-6.51-7.02c-0.31-0.34-0.68-0.62-1.03-0.93c-0.83,1.57-1.65,3.07-2.43,4.6c-1.22,2.41-2.39,4.85-3.62,7.26
				c-2.23,4.39-4.47,8.76-6.73,13.14c-0.54,1.04-1.15,2.05-1.81,3.22c-10.46-29.22-20.86-58.27-31.33-87.5
				c0.41,0.11,0.78,0.15,1.1,0.29c3.91,1.72,7.81,3.46,11.71,5.18c2.94,1.29,5.88,2.56,8.82,3.83c4.35,1.88,8.69,3.77,13.04,5.65
				c2.94,1.28,5.88,2.55,8.83,3.83c4.35,1.88,8.69,3.77,13.04,5.65c2.94,1.28,5.88,2.55,8.83,3.83c2.88,1.25,5.75,2.49,8.63,3.74
				c2.91,1.26,5.82,2.53,8.73,3.77c0.63,0.27,1.29,0.47,2.02,1.01c-9.78,4.54-19.56,9.08-29.49,13.7c1.14,1.18,2.12,2.21,3.12,3.23
				c5.02,5.18,10.04,10.36,15.07,15.53c2.93,3.01,5.89,5.99,8.83,9c1.33,1.36,2.61,2.77,3.99,4.08c0.68,0.65,0.15,0.97-0.21,1.32
				c-2.92,2.79-5.85,5.55-8.78,8.33C207.61,203.84,207.4,203.91,207.2,203.99z"/>
		</g>
	</g>
	<radialGradient id="SVGID_1_" cx="122.6632" cy="101.8314" r="73.3926" gradientUnits="userSpaceOnUse">
		<stop  offset="0" style="stop-color:#AF96FF"/>
		<stop  offset="1" style="stop-color:#671CD1"/>
	</radialGradient>
	<path class="st2" d="M181.67,93.6l62.65,22.53l-61.16,26.3c-10.04,4.32-17.84,12.6-21.54,22.89l-22.53,62.65l-26.3-61.16
		c-4.32-10.04-12.6-17.84-22.89-21.54l-62.65-22.53l61.16-26.3c10.04-4.32,17.84-12.6,21.54-22.89l22.53-62.65l26.3,61.16
		C163.1,82.11,171.39,89.91,181.67,93.6z"/>
	<g>
		<g>
			<path class="st3" d="M105.74,174.13c-4.32-10.04-12.6-17.84-22.89-21.54l-57.16-20.56l-12.75,5.48l62.65,22.53
				c10.28,3.7,18.57,11.5,22.89,21.54l26.3,61.16l4.77-13.26L105.74,174.13z"/>
		</g>
	</g>
</g>
<g>
	<path class="st4" d="M208.86,194.87c-1.85-2-3.7-3.99-5.55-5.99c-3.36-3.63-4.46-4.82-7.83-8.44c-2.52-2.7-5.05-5.39-7.57-8.09
		c-2.17-2.33-4.33-4.68-6.51-7.02c-0.31-0.34-0.68-0.62-1.03-0.93c-0.83,1.57-1.65,3.07-2.43,4.6c-1.22,2.41-2.39,4.85-3.62,7.26
		c-2.23,4.39-4.47,8.76-6.73,13.14c-0.54,1.04-1.15,2.05-1.81,3.22c-10.46-29.22-20.86-58.27-31.33-87.5
		c0.41,0.11,0.78,0.15,1.1,0.29c3.91,1.72,7.81,3.46,11.71,5.18c2.94,1.29,5.88,2.56,8.82,3.83c4.35,1.88,8.69,3.77,13.04,5.65
		c2.94,1.28,5.88,2.55,8.83,3.83c4.35,1.88,8.69,3.77,13.04,5.65c2.94,1.28,5.88,2.55,8.83,3.83c2.88,1.25,5.75,2.49,8.63,3.74
		c2.91,1.26,5.82,2.53,8.73,3.77c0.63,0.27,1.29,0.47,2.02,1.01c-9.78,4.54-19.56,9.08-29.49,13.7c1.14,1.18,2.12,2.21,3.12,3.23
		c5.02,5.18,10.04,10.36,15.07,15.53c2.93,3.01,3.63,3.56,6.57,6.56c1.33,1.36,2.61,2.77,3.99,4.08c0.68,0.65,0.15,0.97-0.21,1.32
		c-2.92,2.79-5.85,5.55-8.78,8.33C209.28,194.72,209.07,194.8,208.86,194.87z"/>
</g>
</svg>
