<?xml version="1.0" encoding="utf-8"?>
<!-- Generator: Adobe Illustrator 27.3.1, SVG Export Plug-In . SVG Version: 6.00 Build 0)  -->
<svg version="1.1" id="Layer_1" xmlns="http://www.w3.org/2000/svg" xmlns:xlink="http://www.w3.org/1999/xlink" x="0px" y="0px"
	 viewBox="0 0 3000 566.57" style="enable-background:new 0 0 3000 566.57;" xml:space="preserve">
<style type="text/css">
	.st0{fill:url(#SVGID_1_);}
	.st1{opacity:0.56;fill:#939395;}
	.st2{fill:#C198D9;}
	.st3{fill:#9B5EBF;}
	.st4{fill:#561B78;}
	.st5{fill-rule:evenodd;clip-rule:evenodd;fill:#3A1251;}
</style>
<linearGradient id="SVGID_1_" gradientUnits="userSpaceOnUse" x1="1500" y1="259.6363" x2="1500" y2="57.3307">
	<stop  offset="2.846789e-09" style="stop-color:#F0EEFF"/>
	<stop  offset="1" style="stop-color:#F8F6FB;stop-opacity:0"/>
</linearGradient>
<rect class="st0" width="3000" height="516.05"/>
<g>
	<g>
		<polygon class="st1" points="2824.15,240.43 2877.18,332.81 2801.29,414.89 2672.32,404.59 2619.29,312.23 2695.18,230.14 		"/>
		<path class="st2" d="M2878.54,599.01c-14.31-3.75-25.2-8.3-32.68-14.57c-5.04-4.24-32.43-11.76-33.99-17.15
			c-1.59-5.37-87.77-12.25-106.78-15.16c-18.96-2.95-50.59-19.12-64.04-22.07c-13.44-2.91-48.23-24.96-53.75-27.42
			c-5.54-2.44-93.33-37.23-102.01-39.67c-8.72-2.44-60.11-23.99-70.37-27.4c-10.29-3.46-76.31-22.79-83.42-24.98
			c-7.13-2.21-71.19-27.19-78.3-30.88c-7.13-3.65-41.52-11-77.11-19.08c-35.56-8.09-123.35-42.62-136.37-46.54
			c-13.07-3.91-51.61-13.32-51.61-13.32c-7.13-1.84-36.78-6.62-48.63-7.36c-11.85-0.72-37.37-7.34-43.31-7.71
			c-5.92-0.35-21.92-4.04-29.05-5.49c-7.11-1.48-53.95-12.5-58.72-13.59c-4.72-1.11-30.24-8.09-39.14-7.73
			c-8.9,0.39-29.07,2.58-40.33,2.95c-11.28,0.35-38.34,1.09-38.34,1.09c-8.7-1.46-12.25-4.65-15.43-5.14
			c-3.16-0.49-26.07-8.32-29.25-8.57c-3.16-0.23-24.5-7.34-30.04-7.34c-5.52,0-26.09-7.34-27.28-8.09
			c-1.19-0.74-11.06-3.42-15.01-2.44c-3.97,0.98-12.25-2.19-13.44-3.44c-1.19-1.23-9.09-3.91-13.47-3.42
			c-4.35,0.49-7.5-1.23-14.21-2.21c-6.73-0.98-11.06-5.63-12.67-7.58c-1.57-1.97-18.96-2.46-26.07-2.95
			c-7.13-0.51-19.01-13.71-28.48-14.22c-9.49-0.47-60.09-19.08-75.91-19.08c-15.82,0-59.7-16.15-68.41-19.59
			c-8.7-3.44-25.3-13.48-29.64-14.94c-4.35-1.48-1.58-2.21-6.32-4.39c-4.75-2.21-11.47-1.48-18.18-2.95
			c-6.72-1.48-14.25-2.69-17.8-2.69c-3.56,0-8.3-2.7-13.05-2.7s-9.89-3.93-16.6-4.65c-6.72-0.72-13.45-5.16-18.97-7.6
			c-5.54-2.44-24.73-0.23-26.9,0c-2.16,0.25-5.93,4.77-8.5,6.13c-2.57,1.35-7.72,0.86-10.87,0.98c-3.16,0.12-4.94,2.56-5.73,2.68
			c-0.8,0.14-5.94,2.83-8.31,4.18c-2.36,1.35-7.9,3.67-11.27,3.91c-0.47,0.04-0.99,0.14-1.55,0.23c-0.17-0.06-0.38-0.1-0.57-0.16
			c-10.08-3.3-17.2-2.56-32.02-4.41c-14.82-1.84-51.6-17.62-58.12-21.66c-6.52-4.06-11.27,2.93-15.42,0
			c-4.15-2.95-15.42-8.81-21.94-8.81c-6.52,0-11.87-10.64-21.34-12.5c-9.51-1.84-22.54-1.09-29.06-4.78
			c-6.52-3.65-49.82-29.73-56.94-31.95c-7.12-2.21-10.08-6.25-15.41-6.25c-5.34,0-16.03,2.23-19.58,0
			c-3.55-2.21-9.09-4.65-12.46-4.88c-3.35-0.25-8.88-2.58-11.26-3.93c-2.37-1.33-7.52-4.04-8.3-4.16c-0.8-0.12-2.57-2.58-5.74-2.7
			c-3.17-0.12-8.3,0.37-10.87-1c-2.57-1.33-6.32-5.86-8.5-6.11c-2.18-0.23-21.35-2.44-26.89,0c-5.53,2.46-12.25,6.86-18.97,7.6
			c-6.72,0.74-11.87,4.65-16.61,4.65c-4.74,0-9.49,2.7-13.05,2.7c-3.56,0-11.07,1.23-17.79,2.7c-6.72,1.48-13.45,0.74-18.18,2.93
			c-4.75,2.21-1.99,2.95-6.34,4.43c-4.35,1.47-20.95,11.5-29.66,14.92c-8.7,3.42-52.58,19.59-68.4,19.59s-66.42,18.61-75.9,19.1
			c-9.49,0.51-21.36,13.71-28.47,14.22c-7.12,0.47-24.51,0.96-26.1,2.91c-1.58,1.97-5.93,6.62-12.65,7.62
			c-6.72,0.98-9.89,2.68-14.23,2.19c-4.36-0.49-12.26,2.21-13.44,3.44c-1.19,1.21-9.49,4.39-13.46,3.42
			c-3.95-0.98-13.83,1.72-15.01,2.46c-1.19,0.74-21.76,8.07-27.3,8.07c-5.53,0-26.88,7.11-30.04,7.36
			c-3.17,0.23-26.09,8.07-29.25,8.57c-3.17,0.47-6.72,3.65-15.42,5.14c0,0-27.08-0.74-38.35-1.09c-11.27-0.39-31.44-2.6-40.33-2.95
			c-8.88-0.39-34.39,6.6-39.14,7.71c-4.75,1.09-51.6,12.11-58.72,13.57c-7.11,1.49-23.14,5.16-29.06,5.53
			c-5.91,0.35-31.42,6.97-43.29,7.7c-11.86,0.74-41.51,5.51-48.63,7.36c0,0-38.54,9.41-51.6,13.34
			c-10.31,3.11-67.35,25.33-108.35,38.48v345.94c12.65-0.41,22.6-0.27,27.69,0.78c21.37,4.41,67.61-10.55,105.56-10.55
			c29.98,0,462.2-32.97,663.02-47.56c5.93,2.75,10.72,4.77,13.62,5.63c16.62,4.9,41.13,28.91,73.54,42.13
			c32.42,13.2,134.42,17.13,167.63,18.11c33.21,1,335.28,21.05,376.39,22.54c41.13,1.47,724.32,54.36,762.29,54.36
			c37.94,0,84.19,14.94,105.56,10.53c21.35-4.39,127.3,7.36,163.68,7.36c36.35,0,172.78-13.71,202.82-17.64
			c30.04-3.93,317.45-13.12,354.62-13.12c6.89,0,20.1-0.29,37.05-0.88V599.01z"/>
		<path class="st3" d="M722.82,465.64c30.53,3.48,61.18,6.65,91.97,9.53c32.63,2.75,64.58,6.64,95.91,11.73
			c59.82,10.42,115.58,25.73,170.78,40.48c25.47,6.82,50.99,13.6,76.14,20.69c30.48,8.58,61.57,14.21,94.99,18.49H3128.4V241.81
			c-2.12-0.51-3.87-1.48-7-3.44c-5.31-3.32-13.32-7.74-20.46-10.15c-5.02-1.69-4.57-1.12-9.71-1.81c-9.43-1.28,1.95,4.81-13.72-1.22
			c-4.86-1.85-7.34-5.97-12.7-7.45c-2.77-0.78-27.29-0.56-23.14-0.36c-25.15-1.25-54.33-5.6-73.41-13.48
			c-16.65-6.89-24.3-16.57-32.09-25.93c-4.37-5.28-8.81-17.68-22.66-18.66c-11.8-0.83-20.92,0.21-33.14-1.96
			c-24.39-4.33-40.08-14.18-58.09-22.43c-7.65-3.5-14.93-6.95-22.02-10.71c-16.37-8.73-36.07-15.07-54.36-22.77
			c-10.7-4.53-15.13-9.89-28.45-12.44c-4.94-0.95-6.97-0.5-12.48-1.87c-3.75-0.95-6.46-2.7-10.81-3.33c-14.79-2.2-22.55,5.47-38.3,3
			c-6.92-1.07-16.68-5.29-21.42-7.96c-9.91-5.55-7.73-6.41-25.97-6.3c-27.01,0.15-57.52-1.54-84.22,0.48
			c-13.55,1.06-25.91,0.99-39.6,1.49c-17.13,0.63-30.03,10.96-43.64,15.37c-17.95,5.82-36.3,3.38-56.22,1.19
			c-9.62-1.09-24.47,0.24-34.46,0.63c-14.51,0.54-28.59,1.24-43.1,1.58c-13.46,0.33-18.06,0.65-29.07,1.6
			c-9.62,0.84-18.43,0.17-28.42,0.36c-10.58,0.23-24.36,0.95-33.25,3.89c-12.81,4.22-18.94,10.66-34.12,13.45
			c-25.74,4.75-50.95,13.59-72.79,21.45c-38.87,13.97-90.38,19.12-137,25.61c-40.9,5.7-85.92,9.91-126.34,16.98
			c-20.63,3.62-18.63,3.48-30.15,8.48c-12.25,5.25-27.07,8.82-42.06,12.1c-11.57,2.52-22.04,4.93-32.97,7.9
			c-22.83,6.23-45.13,9.89-69.97,14.61c-47.25,8.97-93.17,19.02-140.98,27.18c-13.35,2.29-24.84,6.73-37.4,9.8
			c-43.58,10.66-86.22,22.13-129.53,32.89c-16.05,3.98-30.65,9.56-46.16,14c-34.45,9.85-74.02,16.32-111.3,23.54
			c-30.45,5.9-56.71,13.63-88.56,17.33c-76.93,8.94-158.13,16.61-231.93,30.27c-17.26,3.18-32.6,8.1-50.48,11.19
			c-36.98,6.38-76.56,8.36-114.21,13.77c-12.7,1.84-23.45,4.33-32.94,8.76c-23.29,10.92-26.36,32.22-8.12,44.72
			C689.63,460.12,706.65,462.67,722.82,465.64z"/>
		<path class="st4" d="M3037.6,718.85V513.73c-22.74-5-49.15-9.2-75.62-11.6c-47.49-4.32-99.72-8.67-144.85-23.07
			c-45.13-14.43-49.87-33.18-92.61-40.39c-42.74-7.23-90.25-15.86-132.99-20.21c-42.74-4.32-147.23-37.5-156.72-46.15
			c-9.52-8.63-156.75-47.58-189.99-60.57c-33.25-12.99-187.59-64.9-211.34-69.22c-23.73-4.36-52.26,10.08-78.35,18.75
			c-26.14,8.65-170.99-1.46-190,0c-18.98,1.43-90.25,30.27-99.74,34.61c-9.49,4.32-78.35,2.87-99.72,2.87
			c-21.39,0-116.38-10.08-149.62-10.08c-33.25,0-45.12,23.07-121.11,28.85c-75.99,5.76-189.97,31.72-242.22,34.61
			c-52.24,2.87-137.74-5.78-180.49-5.78c-42.74,0-109.23-28.83-147.23-28.83c-37.99,0-104.48,17.29-199.48,20.18
			c-94.99,2.89-256.48,31.72-322.97,60.59c-39.77,17.25-133.93,31.39-218.41,39.26v281.31H3037.6z"/>
		<path class="st5" d="M3037.6,718.85V310.08c-29.55-8.87-58.77-18.53-89.31-24.18c-13.99-2.58-27.53-3.83-42.34-2.89
			c-13.22,0.84-25.62,3.22-39.19,3.91c-16.47,0.84-28.58,5.1-44.65,6.97c-15.58,1.8-28.5,1.62-43.56,4.8
			c-15.95,3.38-32.23,6.6-48.8,8.5c-19.63,2.25-37.77,2.23-56.53,7.09c-17.54,4.57-33.7,10.25-51.66,14.24
			c-28.9,6.39-60.01,16.33-90.38,19.06c-8.15,0.72-16.5,0.25-24.65,1.09c-34.32,3.63-46.09,14.08-67.64,30.25
			c-25.3,19-56.03,40.2-91,52.07c-31.71,10.78-65.08,7.25-99.17,7.97c-16.2,0.33-16.25,0.96-31.58,7.01
			c-22.14,8.71-45.67,15.8-68.91,23.26c-26.19,8.42-46,8.01-74.47,7.81c-35.41-0.25-69.26,6.56-102.6,13.59
			c-37.65,7.91-79.02,8.3-117.59,1.9c-33.62-5.61-66.13-16.06-99.25-22.83c-38.54-7.89-75.14-16.62-111.03-28.59
			c-20.38-6.8-34.99-16.56-57.38-21.31c-19.61-4.16-39.83-7.23-59.49-11.29c-15.31-3.18-30.54-5.66-43.91-11.25
			c-5.38-2.25-8.38-5.35-12.84-7.58c-7.94-3.98-12.45-4.96-22.91-7.23c-25.33-5.51-48.06-18.48-74.03-19.65
			c-60.87-2.75-128.58,4.47-182.21,22.87c-16.01,5.49-32.81,8.07-49.75,12.17c-22.73,5.51-39.22,14-59.89,21.56
			c-30.91,11.31-55.92,12.27-90.19,12.09c-25.87-0.14-51.03-1.35-74.57,4.26c-27.78,6.62-52.47,14.34-82.15,14.75
			c-41.75,0.57-82.41-9.43-122.95-14.55c-41.77-5.25-72.73,9.28-109.23,19.39c-44.08,12.23-89.54,8.42-136.24,10.29
			c-23.06,0.9-53.5,2.6-74.77,8.16c-17.99,4.69-36.18,10.51-51.97,17.77c-7.33,3.36-15.52,9.61-24.27,11.58
			c-19,4.3-46.52-0.47-65.64-1.89c-30.4-2.27-58.17-6.46-86.89-13.11c-10.96-2.52-14.87-3.22-25.54-3.5
			c-22.03-0.59-48.36,3.2-69.74-0.68c-15.66-2.83-19.74-8.46-30.18-14.65c-9.43-5.57-29.61-4.9-41.45-2.97
			c-3.81,0.64-7.4,1.66-10.98,2.73v249.75H3037.6z"/>
	</g>
</g>
</svg>
